# xmcd
#
# Track frame offsets:
# 150
# 10135
# 18807
# 27918
# 39758
# 50353
# 57872
# 67607
# 75118
# 85607
# 92191
# 100512
# 106040
# 116736
#
# Disc length: 1698 seconds
#
#
# Revision: 1
# Processed by: cddbd v1.5.1PL2 Copyright (c) Steve Scherf et al.
# Submitted via: FreeRIP 2.944 
#
DISCID=8606a00e
DTITLE=Johnny Cash - Life Goes On
DYEAR=2003
DGENRE=Country
TTITLE0=I Was There When It Happened
TTITLE1=Life Goes On
TTITLE2=Down The Street To 301
TTITLE3=Goodnight Irene
TTITLE4=Fools Hall Of Fame
TTITLE5=Hey Good Lookin'
TTITLE6=I Could Never Be Ashamed Of You
TTITLE7=If The Good Lord's Willing
TTITLE8=I Just Thought You'd Like To Know
TTITLE9=Leave That Junk Alone
TTITLE10=I Forgot To Remember To Forget
TTITLE11=My Treasure
TTITLE12=I Heard That Lonesome Whistle
TTITLE13=Wide Open Road
EXTD=
EXTT0=
EXTT1=
EXTT2=
EXTT3=
EXTT4=
EXTT5=
EXTT6=
EXTT7=
EXTT8=
EXTT9=
EXTT10=
EXTT11=
EXTT12=
EXTT13=
PLAYORDER=
